<svg id="Layer_1" data-name="Layer 1" xmlns="http://www.w3.org/2000/svg" viewBox="0 0 122.56 122.56"><defs><style>.cls-1{fill:#1e1e1e;stroke:#1f1f20;}.cls-1,.cls-2,.cls-3{stroke-miterlimit:10;}.cls-2{fill:#f4c51b;stroke:#f4c51b;}.cls-3{fill:#1f1f1f;stroke:#1f1f1f;}</style></defs><rect class="cls-1" x="0.5" y="0.5" width="121.56" height="121.56" rx="25.48"/><polygon class="cls-2" points="61.28 11.48 76.93 43.2 111.93 48.28 86.6 72.97 92.58 107.83 61.28 91.37 29.97 107.83 35.95 72.97 10.63 48.28 45.63 43.2 61.28 11.48"/><path class="cls-3" d="M80.12,59.53a8.82,8.82,0,0,0-16.48-3.1,8.83,8.83,0,1,0-8.89,13,9.07,9.07,0,0,0,1.64.06,3.32,3.32,0,0,0-2.69,3.26v6.62A3.31,3.31,0,0,0,57,82.69H70.26a3.31,3.31,0,0,0,3.31-3.31V72.76a3.33,3.33,0,0,0-2.69-3.26A8.84,8.84,0,0,0,80.12,59.53ZM55.9,65.1a4.42,4.42,0,1,1,4.42-4.41A4.42,4.42,0,0,1,55.9,65.1Zm3.32,11a1.11,1.11,0,1,1,0-2.21,1.11,1.11,0,0,1,0,2.21Zm4.41,0A1.11,1.11,0,1,1,64.74,75,1.11,1.11,0,0,1,63.63,76.07ZM57,69.44a8.85,8.85,0,0,0,6.6-4.5,8.84,8.84,0,0,0,6.58,4.5Zm9.91-8.75a4.42,4.42,0,1,1,4.42,4.41A4.42,4.42,0,0,1,66.94,60.69Z" transform="translate(-2.54 -2.67)"/><path class="cls-3" d="M79.51,70.59l-3.73,1.12v8.71l3.73,1.12a1.1,1.1,0,0,0,1.42-1.06V71.65A1.11,1.11,0,0,0,79.51,70.59Z" transform="translate(-2.54 -2.67)"/></svg>